<svg width="35" height="33" viewBox="0 0 35 33" fill="none" xmlns="http://www.w3.org/2000/svg">
<path d="M32.7955 10.8333H27.8612L26.8096 4.5229C26.5978 3.56813 26.1324 2.68881 25.463 1.97831C24.7937 1.26781 23.9452 0.752636 23.0078 0.487498C22.066 0.183151 21.0849 0.018911 20.0958 0H14.056C13.0669 0.018911 12.0858 0.183151 11.144 0.487498C10.2066 0.752636 9.35815 1.26781 8.68877 1.97831C8.01939 2.68881 7.55406 3.56813 7.34218 4.5229L6.29061 10.8333H1.35634C1.14398 10.832 0.93431 10.8811 0.744427 10.9766C0.554543 11.0722 0.389812 11.2114 0.263656 11.383C0.1375 11.5546 0.0534865 11.7537 0.0184616 11.9641C-0.0165633 12.1745 -0.001609 12.3902 0.0621056 12.5937L5.13119 29.6562C5.38926 30.4804 5.90226 31.2006 6.59565 31.712C7.28904 32.2234 8.1267 32.4994 8.98694 32.4999H25.1649C26.0205 32.4936 26.8521 32.215 27.5401 31.704C28.2281 31.193 28.737 30.476 28.9937 29.6562L34.0628 12.5937C34.1258 12.3924 34.1411 12.1791 34.1075 11.9707C34.0739 11.7624 33.9923 11.5649 33.8692 11.3939C33.7461 11.2228 33.5849 11.0831 33.3985 10.9858C33.2121 10.8884 33.0056 10.8362 32.7955 10.8333ZM9.04086 10.8333L10.0115 4.95623C10.1179 4.47638 10.3648 4.03946 10.7204 3.70163C11.0759 3.36379 11.5239 3.14049 12.0068 3.06041C12.6701 2.84916 13.3604 2.7327 14.056 2.70832H20.0958C20.7995 2.72999 21.4979 2.84645 22.172 3.06041C22.6549 3.14049 23.1029 3.36379 23.4584 3.70163C23.814 4.03946 24.0608 4.47638 24.1672 4.95623L25.111 10.8333H8.93301H9.04086Z" fill="#5C859B"/>
</svg>
