<svg width="31" height="33" viewBox="0 0 31 33" fill="none" xmlns="http://www.w3.org/2000/svg">
<path d="M27.1699 11.25H24.6999V8.74997C24.6999 7.09237 24.0493 5.50267 22.8913 4.33057C21.7333 3.15847 20.1626 2.49999 18.5249 2.49999H16.799C14.9604 0.906247 12.4765 0 9.87997 0C4.43209 0 0 3.92499 0 8.74997V29.9999C0 30.6629 0.26023 31.2988 0.723444 31.7677C1.18666 32.2365 1.81491 32.4999 2.46999 32.4999H22.2299C22.885 32.4999 23.5133 32.2365 23.9765 31.7677C24.4397 31.2988 24.6999 30.6629 24.6999 29.9999V28.7499H27.1699C28.1525 28.7499 29.0949 28.3548 29.7897 27.6516C30.4846 26.9483 30.8749 25.9945 30.8749 24.9999V15C30.8749 14.0054 30.4846 13.0516 29.7897 12.3483C29.0949 11.6451 28.1525 11.25 27.1699 11.25ZM9.87997 26.2499C9.87997 26.5814 9.74985 26.8994 9.51825 27.1338C9.28664 27.3682 8.97251 27.4999 8.64497 27.4999C8.31743 27.4999 8.00331 27.3682 7.7717 27.1338C7.54009 26.8994 7.40998 26.5814 7.40998 26.2499V13.75C7.40998 13.4184 7.54009 13.1005 7.7717 12.8661C8.00331 12.6317 8.31743 12.5 8.64497 12.5C8.97251 12.5 9.28664 12.6317 9.51825 12.8661C9.74985 13.1005 9.87997 13.4184 9.87997 13.75V26.2499ZM17.2899 26.2499C17.2899 26.5814 17.1598 26.8994 16.9282 27.1338C16.6966 27.3682 16.3825 27.4999 16.0549 27.4999C15.7274 27.4999 15.4133 27.3682 15.1817 27.1338C14.9501 26.8994 14.82 26.5814 14.82 26.2499V13.75C14.82 13.4184 14.9501 13.1005 15.1817 12.8661C15.4133 12.6317 15.7274 12.5 16.0549 12.5C16.3825 12.5 16.6966 12.6317 16.9282 12.8661C17.1598 13.1005 17.2899 13.4184 17.2899 13.75V26.2499ZM2.62437 7.49998C3.31288 4.64999 6.3062 2.49999 9.87997 2.49999C12.0211 2.49999 14.0573 3.28124 15.4699 4.65311C15.6997 4.87569 16.0055 4.99995 16.3236 4.99998H18.5249C19.2909 5.00022 20.038 5.24075 20.6633 5.68845C21.2887 6.13616 21.7616 6.76904 22.0169 7.49998H2.62437ZM28.4049 24.9999C28.4049 25.3314 28.2748 25.6494 28.0432 25.8838C27.8116 26.1182 27.4975 26.2499 27.1699 26.2499H24.6999V13.75H27.1699C27.4975 13.75 27.8116 13.8817 28.0432 14.1161C28.2748 14.3505 28.4049 14.6684 28.4049 15V24.9999Z" fill="#5C859B"/>
</svg>
