<svg width="21" height="21" viewBox="0 0 21 21" fill="none" xmlns="http://www.w3.org/2000/svg">
<path fill-rule="evenodd" clip-rule="evenodd" d="M3.74057 8.12936C3.74057 7.51087 3.86239 6.89843 4.09907 6.32702C4.33576 5.75561 4.68268 5.23641 5.12002 4.79907C5.55736 4.36173 6.07656 4.01481 6.64797 3.77812C7.21938 3.54144 7.83182 3.41962 8.45031 3.41962C9.0688 3.41962 9.68124 3.54144 10.2527 3.77812C10.8241 4.01481 11.3433 4.36173 11.7806 4.79907C12.2179 5.23641 12.5649 5.75561 12.8015 6.32702C13.0382 6.89843 13.1601 7.51087 13.1601 8.12936C13.1601 9.37846 12.6639 10.5764 11.7806 11.4597C10.8974 12.3429 9.69941 12.8391 8.45031 12.8391C7.20121 12.8391 6.00327 12.3429 5.12002 11.4597C4.23677 10.5764 3.74057 9.37846 3.74057 8.12936ZM8.45031 0.279785C7.2263 0.279914 6.01928 0.566286 4.92566 1.11603C3.83205 1.66577 2.88215 2.46364 2.15184 3.44591C1.42154 4.42818 0.93106 5.56763 0.719595 6.77324C0.50813 7.97885 0.581536 9.2172 0.933949 10.3894C1.28636 11.5616 1.90802 12.6351 2.74925 13.5242C3.59049 14.4133 4.628 15.0934 5.7789 15.5101C6.9298 15.9268 8.1622 16.0685 9.37766 15.9241C10.5931 15.7796 11.7579 15.3529 12.7791 14.678L17.806 19.7059C18.1005 20.0004 18.4999 20.1659 18.9164 20.1659C19.3329 20.1659 19.7324 20.0004 20.0269 19.7059C20.3214 19.4114 20.4868 19.012 20.4868 18.5955C20.4868 18.179 20.3214 17.7795 20.0269 17.485L14.999 12.4581C15.7811 11.2751 16.228 9.90218 16.2924 8.48541C16.3567 7.06864 16.036 5.66091 15.3643 4.41181C14.6926 3.16272 13.6951 2.11893 12.4777 1.39138C11.2603 0.663825 9.86854 0.279686 8.45031 0.279785Z" fill="white"/>
</svg>
