<svg width="33" height="30" viewBox="0 0 33 30" fill="none" xmlns="http://www.w3.org/2000/svg">
<path d="M1.62499 0.0128212C1.19402 0.0128212 0.780696 0.18395 0.47595 0.488563C0.171204 0.793175 0 1.20632 0 1.6371V10.5707C0 13.3157 1.67374 15.6547 4.06249 16.613V26.8135C4.06249 27.4597 4.31929 28.0794 4.77641 28.5363C5.23353 28.9932 5.85352 29.2499 6.49998 29.2499C7.14644 29.2499 7.76643 28.9932 8.22355 28.5363C8.68067 28.0794 8.93747 27.4597 8.93747 26.8135V16.613C11.3262 15.6547 13 13.3157 13 10.5707V1.6371C13 1.20632 12.8288 0.793175 12.524 0.488563C12.2193 0.18395 11.8059 0.0128212 11.375 0.0128212C10.944 0.0128212 10.5307 0.18395 10.2259 0.488563C9.92117 0.793175 9.74997 1.20632 9.74997 1.6371V8.13423C9.74997 8.34963 9.66437 8.5562 9.51199 8.70851C9.35962 8.86081 9.15296 8.94638 8.93747 8.94638C8.72198 8.94638 8.51532 8.86081 8.36295 8.70851C8.21058 8.5562 8.12497 8.34963 8.12497 8.13423V1.6371C8.12497 1.20632 7.95377 0.793175 7.64902 0.488563C7.34428 0.18395 6.93096 0.0128212 6.49998 0.0128212C6.069 0.0128212 5.65568 0.18395 5.35094 0.488563C5.04619 0.793175 4.87498 1.20632 4.87498 1.6371V8.13423C4.87498 8.34963 4.78938 8.5562 4.63701 8.70851C4.48464 8.86081 4.27797 8.94638 4.06249 8.94638C3.847 8.94638 3.64034 8.86081 3.48796 8.70851C3.33559 8.5562 3.24999 8.34963 3.24999 8.13423V1.6371C3.24999 1.20632 3.07879 0.793175 2.77404 0.488563C2.46929 0.18395 2.05597 0.0128212 1.62499 0.0128212ZM29.0549 0.0128212C28.8437 0.0128212 28.6324 0.159007 28.4374 0.272707L22.7499 3.66746V9.75852H16.2499V13.0071H17.8749L19.4999 29.2499H29.2499L30.8749 13.0071H32.4999V9.75852H25.9999V5.43793L30.0624 3.0015C30.8749 2.5467 31.0862 1.6371 30.6149 0.824963C30.2737 0.240221 29.6724 -0.0683929 29.0549 0.0128212Z" fill="#5C859B"/>
</svg>
