<svg width="36" height="28" viewBox="0 0 36 28" fill="none" xmlns="http://www.w3.org/2000/svg">
<path d="M26.3337 0.666504C28.177 0.666504 29.592 2.0715 30.6404 3.58317L30.9954 4.11817L31.3204 4.6515C31.4237 4.82484 31.522 4.99817 31.617 5.16484C32.9287 7.50984 34.0704 10.5715 34.8254 13.5965C35.5754 16.5982 35.9904 19.7332 35.7254 22.1982C35.4587 24.6732 34.1837 27.3332 31.3337 27.3332C28.777 27.3332 26.762 25.9665 25.1254 24.6315L23.2754 23.0798C21.737 21.8198 20.0537 20.6665 18.0004 20.6665C15.947 20.6665 14.262 21.8198 12.727 23.0798L10.877 24.6298C9.23704 25.9665 7.22204 27.3332 4.66704 27.3332C1.81537 27.3332 0.540369 24.6732 0.275369 22.1982C0.0120359 19.7315 0.425369 16.5982 1.17537 13.5948C1.93037 10.5715 3.07204 7.5115 4.3837 5.16484L4.68037 4.64984L5.00537 4.11817L5.36037 3.58317C6.4087 2.0715 7.8237 0.666504 9.66704 0.666504C10.517 0.666504 11.362 0.873171 12.192 1.1165L13.1804 1.41984C13.3437 1.46984 13.5054 1.51817 13.667 1.56317C15.1087 1.9765 16.5837 2.33317 18.0004 2.33317C19.417 2.33317 20.892 1.9765 22.3337 1.56317L23.8087 1.11817C24.6387 0.87317 25.4837 0.666504 26.3337 0.666504ZM12.167 7.33317C11.062 7.33317 10.0022 7.77216 9.22076 8.55356C8.43936 9.33496 8.00037 10.3948 8.00037 11.4998C8.00037 12.6049 8.43936 13.6647 9.22076 14.4461C10.0022 15.2275 11.062 15.6665 12.167 15.6665C13.2721 15.6665 14.3319 15.2275 15.1133 14.4461C15.8947 13.6647 16.3337 12.6049 16.3337 11.4998C16.3337 10.3948 15.8947 9.33496 15.1133 8.55356C14.3319 7.77216 13.2721 7.33317 12.167 7.33317ZM23.8337 7.33317C23.3917 7.33317 22.9678 7.50876 22.6552 7.82133C22.3426 8.13389 22.167 8.55781 22.167 8.99984V9.83317H21.3337C20.8917 9.83317 20.4678 10.0088 20.1552 10.3213C19.8426 10.6339 19.667 11.0578 19.667 11.4998C19.667 11.9419 19.8426 12.3658 20.1552 12.6783C20.4678 12.9909 20.8917 13.1665 21.3337 13.1665H22.167V13.9998C22.167 14.4419 22.3426 14.8658 22.6552 15.1783C22.9678 15.4909 23.3917 15.6665 23.8337 15.6665C24.2757 15.6665 24.6997 15.4909 25.0122 15.1783C25.3248 14.8658 25.5004 14.4419 25.5004 13.9998V13.1665H26.3337C26.7757 13.1665 27.1997 12.9909 27.5122 12.6783C27.8248 12.3658 28.0004 11.9419 28.0004 11.4998C28.0004 11.0578 27.8248 10.6339 27.5122 10.3213C27.1997 10.0088 26.7757 9.83317 26.3337 9.83317H25.5004V8.99984C25.5004 8.55781 25.3248 8.13389 25.0122 7.82133C24.6997 7.50876 24.2757 7.33317 23.8337 7.33317ZM12.167 10.6665C12.3881 10.6665 12.6 10.7543 12.7563 10.9106C12.9126 11.0669 13.0004 11.2788 13.0004 11.4998C13.0004 11.7208 12.9126 11.9328 12.7563 12.0891C12.6 12.2454 12.3881 12.3332 12.167 12.3332C11.946 12.3332 11.7341 12.2454 11.5778 12.0891C11.4215 11.9328 11.3337 11.7208 11.3337 11.4998C11.3337 11.2788 11.4215 11.0669 11.5778 10.9106C11.7341 10.7543 11.946 10.6665 12.167 10.6665Z" fill="#5C859B"/>
</svg>
