<svg width="20" height="20" viewBox="0 0 20 20" fill="none" xmlns="http://www.w3.org/2000/svg">
<path d="M1.11111 20C0.7963 20 0.532226 19.84 0.318893 19.52C0.105559 19.2 -0.000736896 18.8044 3.84468e-06 18.3333C3.84468e-06 17.8611 0.106671 17.465 0.320004 17.145C0.533337 16.825 0.797041 16.6656 1.11111 16.6667H18.8889C19.2037 16.6667 19.4678 16.8267 19.6811 17.1467C19.8944 17.4667 20.0007 17.8622 20 18.3333C20 18.8056 19.8933 19.2017 19.68 19.5217C19.4667 19.8417 19.203 20.0011 18.8889 20H1.11111ZM1.11111 11.6667C0.7963 11.6667 0.532226 11.5067 0.318893 11.1867C0.105559 10.8667 -0.000736896 10.4711 3.84468e-06 10C3.84468e-06 9.52778 0.106671 9.13167 0.320004 8.81167C0.533337 8.49167 0.797041 8.33222 1.11111 8.33333H18.8889C19.2037 8.33333 19.4678 8.49333 19.6811 8.81333C19.8944 9.13333 20.0007 9.52889 20 10C20 10.4722 19.8933 10.8683 19.68 11.1883C19.4667 11.5083 19.203 11.6678 18.8889 11.6667H1.11111ZM1.11111 3.33334C0.7963 3.33334 0.532226 3.17334 0.318893 2.85334C0.105559 2.53334 -0.000736896 2.13778 3.84468e-06 1.66667C3.84468e-06 1.19445 0.106671 0.798339 0.320004 0.478339C0.533337 0.158339 0.797041 -0.00110534 1.11111 5.767e-06H18.8889C19.2037 5.767e-06 19.4678 0.160006 19.6811 0.480006C19.8944 0.800006 20.0007 1.19556 20 1.66667C20 2.13889 19.8933 2.535 19.68 2.855C19.4667 3.175 19.203 3.33445 18.8889 3.33334H1.11111Z" fill="white"/>
</svg>
