<svg width="20" height="20" viewBox="0 0 20 20" fill="none" xmlns="http://www.w3.org/2000/svg">
<path d="M10.1 20C8.7 20 7.38767 19.7333 6.163 19.2C4.93833 18.6667 3.87167 17.9457 2.963 17.037C2.05433 16.129 1.33333 15.0623 0.8 13.837C0.266667 12.6117 0 11.2993 0 9.9C0 7.46667 0.775 5.32067 2.325 3.462C3.875 1.60333 5.85 0.449333 8.25 0C7.95 1.65 8.04167 3.26267 8.525 4.838C9.00833 6.41333 9.84167 7.79233 11.025 8.975C12.2083 10.1583 13.5877 10.9917 15.163 11.475C16.7383 11.9583 18.3507 12.05 20 11.75C19.5667 14.15 18.4167 16.125 16.55 17.675C14.6833 19.225 12.5333 20 10.1 20Z" fill="#1D3552"/>
</svg>
