<svg width="17" height="17" viewBox="0 0 17 17" fill="none" xmlns="http://www.w3.org/2000/svg">
<path d="M16.6496 9.31787C16.6496 9.58958 16.6205 9.74485 16.5622 9.78367C16.5234 9.82248 16.3681 9.84189 16.0964 9.84189H9.80819V16.1301C9.80819 16.3824 9.78878 16.528 9.74997 16.5668C9.71115 16.6056 9.56559 16.625 9.31328 16.625H8.17791C7.9256 16.625 7.78004 16.6056 7.74122 16.5668C7.70241 16.528 7.683 16.3824 7.683 16.1301V9.84189H1.42387C1.15215 9.84189 0.987184 9.82248 0.92896 9.78367C0.890144 9.74485 0.870735 9.58958 0.870735 9.31787V8.26983C0.870735 7.99812 0.890144 7.84285 0.92896 7.80403C0.987184 7.76522 1.15215 7.74581 1.42387 7.74581H7.683V1.51579C7.683 1.24408 7.70241 1.08881 7.74122 1.05C7.79945 1.01118 7.96442 0.99177 8.23613 0.99177H9.25506C9.52677 0.99177 9.68204 1.01118 9.72086 1.05C9.77908 1.08881 9.80819 1.24408 9.80819 1.51579V7.74581H16.0964C16.3681 7.74581 16.5234 7.76522 16.5622 7.80403C16.6205 7.84285 16.6496 7.99812 16.6496 8.26983V9.31787Z" fill="white"/>
</svg>
