<svg width="11" height="17" viewBox="0 0 11 17" fill="none" xmlns="http://www.w3.org/2000/svg">
<path d="M5.5 7.8375C4.97904 7.8375 4.47942 7.6202 4.11104 7.23341C3.74267 6.84661 3.53571 6.32201 3.53571 5.775C3.53571 5.22799 3.74267 4.70339 4.11104 4.31659C4.47942 3.9298 4.97904 3.7125 5.5 3.7125C6.02096 3.7125 6.52058 3.9298 6.88896 4.31659C7.25733 4.70339 7.46429 5.22799 7.46429 5.775C7.46429 6.04585 7.41348 6.31405 7.31476 6.56428C7.21605 6.81452 7.07136 7.04189 6.88896 7.23341C6.70656 7.42493 6.49002 7.57685 6.2517 7.6805C6.01338 7.78415 5.75795 7.8375 5.5 7.8375ZM5.5 0C4.04131 0 2.64236 0.608436 1.61091 1.69146C0.579463 2.77448 0 4.24337 0 5.775C0 10.1062 5.5 16.5 5.5 16.5C5.5 16.5 11 10.1062 11 5.775C11 4.24337 10.4205 2.77448 9.38909 1.69146C8.35764 0.608436 6.95869 0 5.5 0Z" fill="#5C859B"/>
</svg>
