<svg width="21" height="21" viewBox="0 0 21 21" fill="none" xmlns="http://www.w3.org/2000/svg">
<path d="M3.69919 15.3659L2.97764 16.0932C2.78836 16.2851 2.68212 16.5447 2.68212 16.8154C2.68212 17.086 2.78836 17.3456 2.97764 17.5376C3.16805 17.7284 3.42563 17.8354 3.69411 17.8354C3.96259 17.8354 4.22016 17.7284 4.41057 17.5376L5.13212 16.8102C5.29861 16.6143 5.3856 16.3622 5.37572 16.1044C5.36585 15.8466 5.25982 15.602 5.07883 15.4196C4.89784 15.2371 4.65521 15.1303 4.39945 15.1203C4.14368 15.1103 3.8936 15.198 3.69919 15.3659ZM3.04878 10.2439C3.04878 9.97222 2.94171 9.71166 2.75113 9.51955C2.56054 9.32744 2.30205 9.21951 2.03252 9.21951H1.01626C0.746731 9.21951 0.488242 9.32744 0.297656 9.51955C0.10707 9.71166 0 9.97222 0 10.2439C0 10.5156 0.10707 10.7761 0.297656 10.9683C0.488242 11.1604 0.746731 11.2683 1.01626 11.2683H2.03252C2.30205 11.2683 2.56054 11.1604 2.75113 10.9683C2.94171 10.7761 3.04878 10.5156 3.04878 10.2439ZM10.1626 3.07317C10.4321 3.07317 10.6906 2.96524 10.8812 2.77313C11.0718 2.58102 11.1789 2.32047 11.1789 2.04878V1.02439C11.1789 0.752705 11.0718 0.492147 10.8812 0.300037C10.6906 0.107926 10.4321 0 10.1626 0C9.89307 0 9.63459 0.107926 9.444 0.300037C9.25341 0.492147 9.14634 0.752705 9.14634 1.02439V2.04878C9.14634 2.32047 9.25341 2.58102 9.444 2.77313C9.63459 2.96524 9.89307 3.07317 10.1626 3.07317ZM3.69919 5.17317C3.88848 5.36242 4.14396 5.46911 4.41057 5.47024C4.54432 5.47102 4.6769 5.44518 4.80072 5.39421C4.92454 5.34323 5.03716 5.26811 5.13212 5.17317C5.32139 4.98124 5.42764 4.72161 5.42764 4.45098C5.42764 4.18035 5.32139 3.92071 5.13212 3.72878L4.41057 3.00146C4.21616 2.83364 3.96608 2.74595 3.71031 2.75591C3.45454 2.76586 3.21192 2.87274 3.03093 3.05518C2.84994 3.23762 2.74391 3.48218 2.73403 3.73999C2.72415 3.99781 2.81115 4.24989 2.97764 4.44585L3.69919 5.17317ZM15.8943 5.47024C16.1609 5.46911 16.4164 5.36242 16.6057 5.17317L17.3272 4.44585C17.4336 4.35402 17.52 4.24101 17.581 4.11392C17.642 3.98683 17.6763 3.8484 17.6817 3.70732C17.6871 3.56625 17.6635 3.42556 17.6124 3.29411C17.5613 3.16265 17.4838 3.04326 17.3848 2.94343C17.2858 2.8436 17.1673 2.76548 17.0369 2.71398C16.9065 2.66248 16.7669 2.63871 16.627 2.64416C16.487 2.64961 16.3497 2.68416 16.2236 2.74565C16.0975 2.80713 15.9854 2.89423 15.8943 3.00146L15.2439 3.72878C15.0546 3.92071 14.9484 4.18035 14.9484 4.45098C14.9484 4.72161 15.0546 4.98124 15.2439 5.17317C15.4231 5.35281 15.6622 5.45872 15.9146 5.47024H15.8943ZM19.3089 9.21951H18.2927C18.0232 9.21951 17.7647 9.32744 17.5741 9.51955C17.3835 9.71166 17.2764 9.97222 17.2764 10.2439C17.2764 10.5156 17.3835 10.7761 17.5741 10.9683C17.7647 11.1604 18.0232 11.2683 18.2927 11.2683H19.3089C19.5785 11.2683 19.837 11.1604 20.0276 10.9683C20.2181 10.7761 20.3252 10.5156 20.3252 10.2439C20.3252 9.97222 20.2181 9.71166 20.0276 9.51955C19.837 9.32744 19.5785 9.21951 19.3089 9.21951ZM10.1626 17.4146C9.89307 17.4146 9.63459 17.5226 9.444 17.7147C9.25341 17.9068 9.14634 18.1673 9.14634 18.439V19.4634C9.14634 19.7351 9.25341 19.9957 9.444 20.1878C9.63459 20.3799 9.89307 20.4878 10.1626 20.4878C10.4321 20.4878 10.6906 20.3799 10.8812 20.1878C11.0718 19.9957 11.1789 19.7351 11.1789 19.4634V18.439C11.1789 18.1673 11.0718 17.9068 10.8812 17.7147C10.6906 17.5226 10.4321 17.4146 10.1626 17.4146ZM16.626 15.3659C16.4329 15.2576 16.2101 15.2157 15.9913 15.2466C15.7725 15.2774 15.5696 15.3792 15.4134 15.5367C15.2572 15.6942 15.1561 15.8987 15.1255 16.1193C15.095 16.3398 15.1365 16.5644 15.2439 16.759L15.9654 17.4863C16.1559 17.6771 16.4134 17.7842 16.6819 17.7842C16.9504 17.7842 17.208 17.6771 17.3984 17.4863C17.5877 17.2944 17.6939 17.0348 17.6939 16.7641C17.6939 16.4935 17.5877 16.2339 17.3984 16.042L16.626 15.3659ZM10.1626 4.60976C9.05712 4.60976 7.97646 4.94019 7.05728 5.55928C6.1381 6.17837 5.42169 7.0583 4.99864 8.08781C4.57559 9.11731 4.4649 10.2502 4.68057 11.3431C4.89624 12.436 5.42858 13.4399 6.21028 14.2278C6.99197 15.0158 7.98792 15.5524 9.07216 15.7698C10.1564 15.9872 11.2803 15.8756 12.3016 15.4492C13.3229 15.0227 14.1959 14.3006 14.81 13.3741C15.4242 12.4475 15.752 11.3582 15.752 10.2439C15.7493 8.75047 15.1596 7.31897 14.112 6.26295C13.0643 5.20693 11.6442 4.61246 10.1626 4.60976Z" fill="#CA434C"/>
</svg>
