<svg width="20" height="20" viewBox="0 0 20 20" fill="none" xmlns="http://www.w3.org/2000/svg">
<path d="M2.5 5H4.16667H17.5" stroke="white" stroke-width="2" stroke-linecap="round" stroke-linejoin="round"/>
<path d="M6.6665 5.00008V3.33341C6.6665 2.89139 6.8421 2.46746 7.15466 2.1549C7.46722 1.84234 7.89114 1.66675 8.33317 1.66675H11.6665C12.1085 1.66675 12.5325 1.84234 12.845 2.1549C13.1576 2.46746 13.3332 2.89139 13.3332 3.33341V5.00008M15.8332 5.00008V16.6667C15.8332 17.1088 15.6576 17.5327 15.345 17.8453C15.0325 18.1578 14.6085 18.3334 14.1665 18.3334H5.83317C5.39114 18.3334 4.96722 18.1578 4.65466 17.8453C4.3421 17.5327 4.1665 17.1088 4.1665 16.6667V5.00008H15.8332Z" stroke="white" stroke-width="2" stroke-linecap="round" stroke-linejoin="round"/>
<path d="M8.3335 9.16675V14.1667" stroke="white" stroke-width="2" stroke-linecap="round" stroke-linejoin="round"/>
<path d="M11.6665 9.16675V14.1667" stroke="white" stroke-width="2" stroke-linecap="round" stroke-linejoin="round"/>
</svg>
